<?xml version="1.0" ?><!DOCTYPE svg  PUBLIC '-//W3C//DTD SVG 1.1//EN'  'http://www.w3.org/Graphics/SVG/1.1/DTD/svg11.dtd'><svg enable-background="new -143.355 164.209 45 37" height="37px" id="Layer_1" version="1.1" viewBox="-143.355 164.209 45 37" width="45px" xml:space="preserve" xmlns="http://www.w3.org/2000/svg" xmlns:xlink="http://www.w3.org/1999/xlink"><g><path d="M-125.355,183.367v-11.158c0-4-3.358-8-7.5-8c-4.143,0-7.5,4-7.5,8s0,11.158,0,11.158   c-1.854,1.895-3,4.482-3,7.342c0,5.799,4.701,10.5,10.5,10.5c5.8,0,10.5-4.701,10.5-10.5   C-122.355,187.85-123.502,185.262-125.355,183.367z M-132.855,198.209c-4.136,0-7.5-3.363-7.5-7.5c0-1.969,0.762-3.831,2.145-5.243   l0.855-0.875v-12.382c0-2.266,2.008-5,4.5-5c2.493,0,4.5,2.734,4.5,5v12.382l0.856,0.875c1.383,1.412,2.144,3.274,2.144,5.243   C-125.355,194.846-128.72,198.209-132.855,198.209z" fill="#363636"/><path d="M-132.855,196.209c-3.033,0-5.5-2.468-5.5-5.5c0-1.443,0.559-2.809,1.573-3.844l1.427-1.459v-13.197   c0-1.282,1.236-3,2.5-3s2.5,1.718,2.5,3v13.197l1.427,1.457c1.015,1.037,1.573,2.402,1.573,3.846   C-127.355,193.741-129.823,196.209-132.855,196.209z" fill="#363636"/><path d="M-101.355,183.367v-11.158c0-4-3.358-8-7.5-8c-4.143,0-7.5,4-7.5,8s0,11.158,0,11.158   c-1.854,1.895-3,4.482-3,7.342c0,5.799,4.701,10.5,10.5,10.5c5.8,0,10.5-4.701,10.5-10.5   C-98.355,187.85-99.502,185.262-101.355,183.367z M-108.855,198.209c-4.136,0-7.5-3.363-7.5-7.5c0-1.969,0.762-3.831,2.145-5.243   l0.855-0.875v-12.382c0-2.266,2.008-5,4.5-5c2.493,0,4.5,2.734,4.5,5v12.382l0.856,0.875c1.383,1.412,2.144,3.274,2.144,5.243   C-101.355,194.846-104.72,198.209-108.855,198.209z" fill="#363636"/><path d="M-108.855,196.209c-3.033,0-5.5-2.468-5.5-5.5c0-1.443,0.559-2.809,1.573-3.844l1.427-1.459v-3.197   c0-1.282,1.236-3,2.5-3s2.5,1.718,2.5,3v3.197l1.427,1.457c1.015,1.037,1.573,2.402,1.573,3.846   C-103.355,193.741-105.823,196.209-108.855,196.209z" fill="#363636"/></g></svg>